HIERARCHY
ROOT Hips
{
	OFFSET 0.00000 0.00000 0.00000
	CHANNELS 6 Xposition Yposition Zposition Zrotation Yrotation Xrotation 
	JOINT LHipJoint
	{
		OFFSET 0 0 0
		CHANNELS 3 Zrotation Yrotation Xrotation
		JOINT LeftHip
		{
			OFFSET 1.82298 -1.58346 0.87084
			CHANNELS 3 Zrotation Yrotation Xrotation
			JOINT LeftKnee
			{
				OFFSET 2.43790 -6.69809 0.00000
				CHANNELS 3 Zrotation Yrotation Xrotation
				JOINT LeftAnkle
				{
					OFFSET 2.59288 -7.12389 0.00000
					CHANNELS 3 Zrotation Yrotation Xrotation
					JOINT LeftToe
					{
						OFFSET 0.14552 -0.39981 2.13160
						CHANNELS 3 Zrotation Yrotation Xrotation
						End Site
						{
							OFFSET 0.00000 -0.00000 1.09427
						}
					}
				}
			}
		}
	}
	JOINT RHipJoint
	{
		OFFSET 0 0 0
		CHANNELS 3 Zrotation Yrotation Xrotation
		JOINT RightHip
		{
			OFFSET -1.77229 -1.58346 0.87084
			CHANNELS 3 Zrotation Yrotation Xrotation
			JOINT RightKnee
			{
				OFFSET -2.50703 -6.88801 0.00000
				CHANNELS 3 Zrotation Yrotation Xrotation
				JOINT RightAnkle
				{
					OFFSET -2.61620 -7.18796 0.00000
					CHANNELS 3 Zrotation Yrotation Xrotation
					JOINT RightToe
					{
						OFFSET -0.15190 -0.41735 2.15974
						CHANNELS 3 Zrotation Yrotation Xrotation
						End Site
						{
							OFFSET -0.00000 -0.00000 1.10919
						}
					}
				}
			}
		}
	}
	JOINT lowerback
	{
		OFFSET 0 0 0
		CHANNELS 3 Zrotation Yrotation Xrotation
		JOINT Chest
		{
			OFFSET -0.03602 2.12423 -0.30249
			CHANNELS 3 Zrotation Yrotation Xrotation
			JOINT Chest2
			{
				OFFSET 0.02717 2.10043 0.12912
				CHANNELS 3 Zrotation Yrotation Xrotation
				JOINT lowerneck
				{
					OFFSET 0 0 0
					CHANNELS 3 Zrotation Yrotation Xrotation
					JOINT Neck
					{
						OFFSET -0.06371 1.88656 0.11602
						CHANNELS 3 Zrotation Yrotation Xrotation
						JOINT Head
						{
							OFFSET 0.08208 1.87759 -0.11505
							CHANNELS 3 Zrotation Yrotation Xrotation
							End Site
							{
								OFFSET 0.03382 1.93090 -0.05483
							}
						}
					}
				}
				JOINT LeftCollar
				{
					OFFSET 0 0 0
					CHANNELS 3 Zrotation Yrotation Xrotation
					JOINT LeftShoulder
					{
						OFFSET 3.30903 1.40357 0.20156
CHANNELS 3 Zrotation Xrotation Yrotation
						JOINT LeftElbow
						{
OFFSET 0 -5.433010 0.000000
CHANNELS 3 Zrotation Xrotation Yrotation
							JOINT LeftWrist
							{
OFFSET 0 -3.159360 0.000000
CHANNELS 3 Zrotation Xrotation Yrotation
								JOINT lhand
								{
									OFFSET 0 0 0
CHANNELS 3 Zrotation Xrotation Yrotation
									JOINT LFingers
									{
OFFSET 0 -0.712830 0.000000
CHANNELS 3 Zrotation Xrotation Yrotation
										End Site
										{
OFFSET 0 -0.574700 0.000000
										}
									}
								}
								JOINT LThumb
								{
OFFSET 0 0.000000 0.000000
CHANNELS 3 Zrotation Xrotation Yrotation
									End Site
									{
OFFSET 0 -0.583470 0.583470
									}
								}
							}
						}
					}
				}
				JOINT RightCollar
				{
					OFFSET 0 0 0
					CHANNELS 3 Zrotation Yrotation Xrotation
					JOINT RightShoulder
					{
						OFFSET -3.12947 1.60037 -0.00464
CHANNELS 3 Zrotation Xrotation Yrotation
						JOINT RightElbow
						{
OFFSET 0 -5.341940 0.000000
CHANNELS 3 Zrotation Xrotation Yrotation
							JOINT RightWrist
							{
OFFSET 0 -3.193510 0.000000
CHANNELS 3 Zrotation Xrotation Yrotation
								JOINT rhand
								{
									OFFSET 0 0 0
CHANNELS 3 Zrotation Xrotation Yrotation
									JOINT RFingers
									{
OFFSET 0 -0.743860 0.000000
CHANNELS 3 Zrotation Xrotation Yrotation
										End Site
										{
OFFSET 0 -0.599720 0.000000
										}
									}
								}
								JOINT RThumb
								{
OFFSET 0 0.000000 0.000000
CHANNELS 3 Zrotation Xrotation Yrotation
									End Site
									{
OFFSET 0 -0.608880 0.608880
									}
								}
							}
						}
					}
				}
			}
		}
	}
}
MOTION
Frames: 9
Frame Time: 0.008333333333333333
-2.484600 16.192400 -39.109600 -9.489500 -18.607100 8.157300 0.000000 0.000000 0.000000 4.762800 -12.793700 -41.254100 5.422000 13.843900 42.615500 0.091300 -3.035900 -5.456000 0.094600 -1.983600 -5.460200 0.000000 0.000000 0.000000 25.922900 3.488800 -8.188700 -4.566400 -12.878200 38.914400 -1.356500 -13.124800 -30.209800 -1.110600 6.695500 -18.816400 3.014000 2.405600 7.778800 3.248200 3.694000 -1.529600 1.228600 1.771300 -5.994000 -10.939300 -11.586700 3.192300 10.059000 -16.407000 7.808900 4.190900 -8.250900 3.546100 0.000000 0.000000 0.000000 4.281700 -2.786200 -21.948500 11.790500 -19.489800 2.031900 28.558200 31.708800 -16.926800 0.000000 0.000000 0.000000 -7.125000 0.000000 0.000000 0.678500 49.089200 -0.068400 0.000000 0.000000 0.000000 -8.440400 -13.618800 54.021300 -24.893100 -36.094600 -8.226900 -20.558000 15.012700 33.641300 0.000000 0.000000 0.000000 7.125000 0.000000 -0.000000 15.431700 64.750800 -7.458500
-2.484161 16.189048 -39.104466 -9.428042 -18.493511 8.028951 0.000000 0.000000 0.000000 4.640581 -12.769109 -41.212233 5.426071 13.848110 42.632482 0.086785 -3.186097 -5.357576 0.096644 -2.005281 -5.520173 0.000000 0.000000 0.000000 25.881921 3.372745 -8.076536 -4.567573 -12.879552 38.919350 -1.364395 -13.151353 -30.284117 -1.093788 6.646009 -18.670900 2.959289 2.409719 7.785190 3.195302 3.694386 -1.582462 1.202618 1.771760 -6.053197 -11.608603 -11.434895 3.117886 10.862171 -16.294558 7.993171 4.520548 -8.192292 3.720923 0.000000 0.000000 0.000000 4.271673 -2.199846 -20.883774 11.366261 -18.847498 1.892592 28.366208 32.626996 -16.978299 0.000000 0.000000 0.000000 -7.125000 0.000000 0.000000 0.481184 49.114896 -0.048829 0.000000 0.000000 0.000000 -8.389286 -12.559243 53.367291 -24.121523 -35.292158 -7.776778 -20.472861 15.015195 33.339409 0.000000 0.000000 0.000000 7.125000 0.000000 0.000000 15.264490 64.437101 -7.264912
-2.484122 16.184775 -39.102366 -9.386429 -18.371764 7.914860 0.000000 0.000000 0.000000 4.555314 -12.744185 -41.182586 5.428997 13.851214 42.644640 0.082745 -3.355093 -5.281658 0.091716 -1.952983 -5.375761 0.000000 0.000000 0.000000 25.862820 3.262395 -7.989087 -4.569291 -12.881669 38.927058 -1.367380 -13.196711 -30.342324 -1.099506 6.662974 -18.720626 2.900080 2.384801 7.753453 3.171245 3.653985 -1.613986 1.216404 1.753437 -6.070139 -11.680006 -11.446579 3.129382 10.884924 -16.315132 7.991610 4.536382 -8.204412 3.728703 0.000000 0.000000 0.000000 4.251982 -1.536893 -19.975201 11.081582 -18.413161 1.801669 28.272592 33.224485 -16.809142 0.000000 0.000000 0.000000 -7.125000 0.000000 0.000000 0.414481 48.911886 -0.039986 0.000000 0.000000 0.000000 -8.338437 -11.508205 52.704715 -23.143987 -34.245384 -7.219326 -20.654824 15.445678 32.700590 0.000000 0.000000 0.000000 7.125000 0.000000 0.000000 14.514669 63.868240 -6.712129
-2.486087 16.180974 -39.098613 -9.332685 -18.222444 7.766129 0.000000 0.000000 0.000000 4.451893 -12.746801 -41.140624 5.442601 13.865552 42.701415 0.080332 -3.465678 -5.240352 0.089193 -1.926506 -5.302572 0.000000 0.000000 0.000000 25.834757 3.090638 -7.868763 -4.570193 -12.882810 38.931365 -1.377799 -13.205730 -30.417998 -1.082129 6.611834 -18.570272 2.857080 2.376371 7.764691 3.123163 3.636234 -1.608471 1.191989 1.745431 -6.069809 -11.606596 -11.519349 3.019519 10.819070 -16.398681 8.013463 4.491940 -8.241433 3.751506 0.000000 0.000000 0.000000 4.277052 -0.941401 -19.266019 10.851865 -18.060682 1.729815 28.205789 33.713449 -16.684631 0.000000 0.000000 0.000000 -7.125000 0.000000 0.000000 0.367119 48.762806 -0.033629 0.000000 0.000000 0.000000 -8.251915 -10.467709 51.692783 -22.189791 -33.189428 -6.690095 -20.320665 15.264694 33.103686 0.000000 0.000000 0.000000 7.125000 0.000000 0.000000 15.238313 64.168548 -7.157183
-2.484478 16.173078 -39.099319 -9.450714 -18.051427 7.718570 0.000000 0.000000 0.000000 4.558732 -12.749107 -41.216251 5.467938 13.892185 42.807128 0.079828 -3.579849 -5.254206 0.098478 -2.023982 -5.571944 0.000000 0.000000 0.000000 25.983192 2.957815 -7.817932 -4.572416 -12.885450 38.941266 -1.387428 -13.212576 -30.486067 -1.067928 6.569740 -18.446834 2.989742 2.354862 7.766118 3.121062 3.621471 -1.628048 1.117396 1.732971 -6.083113 -11.675106 -11.514016 2.879704 11.023578 -16.404160 8.064826 4.551218 -8.236435 3.812558 0.000000 0.000000 0.000000 4.285944 -0.416617 -18.615668 10.680699 -17.797237 1.677071 27.817995 34.036671 -16.639969 0.000000 0.000000 0.000000 -7.125000 0.000000 0.000000 -0.006096 48.651168 0.000551 0.000000 0.000000 0.000000 -8.178039 -9.495859 50.636850 -20.973387 -31.796367 -6.036382 -20.029434 15.589802 33.434997 0.000000 0.000000 0.000000 7.125000 0.000000 0.000000 15.870591 64.406631 -7.552465
-2.485784 16.168047 -39.098312 -9.457090 -17.945520 7.638309 0.000000 0.000000 0.000000 4.543462 -12.738709 -41.226702 5.484634 13.909529 42.876413 0.087983 -3.528271 -5.460605 0.132367 -2.344580 -6.458883 0.000000 0.000000 0.000000 26.004447 2.822160 -7.769295 -4.578030 -12.892314 38.966582 -1.394401 -13.222340 -30.539109 -1.080065 6.605704 -18.552216 2.945398 2.327898 7.739036 3.120719 3.581282 -1.657435 1.147419 1.714584 -6.101351 -11.094959 -11.755085 3.016577 10.123178 -16.641118 7.942198 4.197580 -8.363733 3.658333 0.000000 0.000000 0.000000 4.294252 0.178063 -18.168528 10.569882 -17.625919 1.643299 27.685897 34.078166 -16.436821 0.000000 0.000000 0.000000 -7.125000 0.000000 0.000000 -0.103878 48.405651 0.008698 0.000000 0.000000 0.000000 -8.110938 -8.471937 49.515975 -19.722809 -30.306732 -5.390797 -19.811008 15.885901 33.599061 0.000000 0.000000 0.000000 7.125000 0.000000 0.000000 16.265685 64.504736 -7.778580
-2.487789 16.164673 -39.098820 -9.418244 -17.867114 7.532446 0.000000 0.000000 0.000000 4.479998 -12.754242 -41.192935 5.494753 13.920188 42.918634 0.098922 -3.353494 -5.711118 0.187391 -2.787166 -7.686793 0.000000 0.000000 0.000000 25.991742 2.737268 -7.713219 -4.587536 -12.903674 39.008906 -1.386121 -13.302051 -30.554401 -1.075619 6.592556 -18.513670 2.844665 2.294659 7.738307 3.119802 3.529880 -1.714141 1.208301 1.692231 -6.166600 -11.815736 -11.519502 3.072627 10.962795 -16.430420 8.106578 4.562439 -8.261326 3.803530 0.000000 0.000000 0.000000 4.284736 0.826498 -17.805284 10.525283 -17.556985 1.629848 27.531329 33.991156 -16.251468 0.000000 0.000000 0.000000 -7.125000 0.000000 0.000000 -0.226111 48.176750 0.017753 0.000000 0.000000 0.000000 -8.032862 -7.374071 48.215694 -18.419603 -28.689977 -4.749517 -19.454493 16.342722 34.168276 0.000000 0.000000 0.000000 7.125000 0.000000 0.000000 17.207079 64.947481 -8.417884
-2.490267 16.162286 -39.100257 -9.400468 -17.818688 7.427588 0.000000 0.000000 0.000000 4.452563 -12.828974 -41.107180 5.500918 13.926592 42.944193 0.108543 -3.131742 -5.921896 0.246861 -3.195744 -8.824299 0.000000 0.000000 0.000000 26.004574 2.692846 -7.626272 -4.593100 -12.910400 39.033963 -1.389360 -13.326251 -30.596151 -1.076124 6.594036 -18.518199 2.790112 2.284348 7.719206 3.116956 3.510546 -1.730036 1.238659 1.684605 -6.175346 -11.891043 -11.520734 3.140543 10.940577 -16.439224 8.124301 4.569673 -8.270576 3.803262 0.000000 0.000000 0.000000 4.320661 1.295235 -17.743537 10.478397 -17.484448 1.615722 27.546398 33.949297 -16.271150 0.000000 0.000000 0.000000 -7.125000 0.000000 0.000000 -0.214517 48.200777 0.016953 0.000000 0.000000 0.000000 -7.946892 -6.431150 46.705543 -17.040170 -26.909051 -4.106335 -19.552750 16.880352 34.006819 0.000000 0.000000 0.000000 7.125000 0.000000 0.000000 16.940519 64.821646 -8.234546
-2.492975 16.159644 -39.102619 -9.392699 -17.725653 7.337070 0.000000 0.000000 0.000000 4.459743 -12.989794 -41.035064 5.504400 13.930300 42.958857 0.121094 -2.677298 -6.192561 0.331430 -3.697328 -10.226966 0.000000 0.000000 0.000000 26.036670 2.614333 -7.573011 -4.590687 -12.907462 39.023099 -1.340719 -13.580423 -30.502936 -1.109343 6.691235 -18.803965 2.811507 2.281800 7.699650 3.084267 3.505300 -1.709367 1.194441 1.681075 -6.138861 -11.910831 -11.556845 3.046415 10.944044 -16.485245 8.187721 4.561787 -8.290201 3.845089 0.000000 0.000000 0.000000 4.395386 1.559134 -17.789341 10.451005 -17.441879 1.607512 27.438581 33.980125 -16.333270 0.000000 0.000000 0.000000 -7.125000 0.000000 0.000000 -0.328911 48.252500 0.026419 0.000000 0.000000 0.000000 -7.867028 -5.511976 44.927459 -15.763622 -25.197613 -3.545550 -19.506878 17.453927 33.943846 0.000000 0.000000 0.000000 7.125000 0.000000 0.000000 16.934976 64.749183 -8.203437
